<?xml version="1.0" encoding="UTF-8" standalone="no"?>
<!-- Created with Inkscape (http://www.inkscape.org/) -->

<svg
   version="1.1"
   id="svg1"
   width="97.033249"
   height="105.30533"
   viewBox="0 0 97.033248 105.30533"
   xmlns="http://www.w3.org/2000/svg"
   xmlns:svg="http://www.w3.org/2000/svg">
  <defs
     id="defs1" />
  <g
     id="g1"
     transform="translate(-228.196,-51.405338)">
    <g
       id="group-R5">
      <path
         id="path57"
         d="m 2106.64,1074.97 c 126.4,0 245.12,60.33 319.46,162.42 13.88,19.09 9.61,46.02 -9.48,59.9 -7.59,5.51 -16.4,8.16 -25.14,8.16 -13.29,0 -26.41,-6.12 -34.78,-17.64 -56.33,-77.22 -147.29,-127.24 -250.06,-127.24 -170.8,0.28 -309.03,138.5 -309.3,309.16 0.27,170.79 138.5,308.88 309.3,309.15 0.13,0 0.27,0 0.42,0 101.51,0 196.41,-49.85 254.04,-133.27 8.32,-12.05 21.65,-18.48 35.23,-18.48 8.42,0 16.94,2.46 24.41,7.62 19.51,13.6 24.31,40.25 10.85,59.77 -73.78,106.62 -195.25,170.24 -324.95,170.24 -218.33,0 -395.17,-176.7 -395.17,-394.89 0,-218.06 176.97,-394.9 395.17,-394.9"
         style="fill:#7ecd50;fill-opacity:1;fill-rule:nonzero;stroke:none"
         transform="matrix(0.13333333,0,0,-0.13333333,0,300.04)" />
      <path
         id="path58"
         d="m 1976.9,1267.43 h 254.86 c 20.39,0 36.81,16.53 36.94,36.92 v 3.73 c -0.13,20.39 -16.55,36.8 -36.94,36.92 h -206.25 c -4.48,0 -8.21,3.73 -8.21,8.21 v 64.65 c 0.13,4.48 3.73,8.08 8.21,8.21 h 141.73 c 20.39,0 36.8,16.53 36.93,36.92 v 3.73 c 0,20.39 -16.54,36.8 -36.93,36.92 h -141.73 c -4.48,0.13 -8.08,3.74 -8.21,8.21 v 64.65 c 0.13,4.35 3.73,7.96 8.33,7.96 h 206.02 c 20.39,0 36.79,16.53 36.92,36.92 v 3.73 c 0,20.39 -16.53,36.8 -36.92,36.93 h -254.88 c -20.02,-0.13 -36.42,-16.04 -36.92,-36.06 v -114.26 c 0,-4.47 -3.73,-8.2 -8.2,-8.2 -20.4,0 -36.81,-16.54 -36.94,-36.92 v -3.74 c 0.13,-20.38 16.54,-36.79 36.94,-36.92 h 0.11 c 4.49,-0.13 8.09,-3.73 8.22,-8.2 v -113.39 c 0,-20.39 16.53,-36.81 36.92,-36.92"
         style="fill:#7ecd50;fill-opacity:1;fill-rule:nonzero;stroke:none"
         transform="matrix(0.13333333,0,0,-0.13333333,0,300.04)" />
    </g>
  </g>
</svg>
