<?xml version="1.0" encoding="UTF-8" standalone="no"?>
<!-- Created with Inkscape (http://www.inkscape.org/) -->

<svg
   version="1.1"
   id="svg1"
   width="595.05774"
   height="105.3052"
   viewBox="0 0 595.05774 105.3052"
   xmlns="http://www.w3.org/2000/svg"
   xmlns:svg="http://www.w3.org/2000/svg">
  <defs
     id="defs1" />
  <g
     id="g1"
     transform="translate(-53.327599,-43.529335)">
    <g
       id="group-R5">
      <path
         id="path2"
         d="m 1472.68,810.766 h -76.96 v 53.41 h 68.01 v 42.129 h -68.01 v 44.785 h 70.99 v 42.129 H 1345.3 V 769.301 h 121.41 l 5.97,41.465"
         style="fill:#7ecd50;fill-opacity:1;fill-rule:nonzero;stroke:none"
         transform="matrix(0.13333333,0,0,-0.13333333,0,192.36)" />
      <path
         id="path3"
         d="m 1638.91,993.219 h -45.45 v -41.133 c 0,-34.836 0.67,-71.66 2.99,-99.856 h -1 c -2.32,9.954 -9.95,35.5 -44.12,140.989 h -56.39 V 769.301 h 45.78 v 43.789 c 0,36.484 -1,77.949 -2.66,104.824 h 1 c 2.32,-9.617 8.95,-32.176 44.45,-148.613 h 55.4 v 223.918"
         style="fill:#7ecd50;fill-opacity:1;fill-rule:nonzero;stroke:none"
         transform="matrix(0.13333333,0,0,-0.13333333,0,192.36)" />
      <path
         id="path4"
         d="M 1753.39,769.301 V 951.09 h 43.79 v 42.129 H 1657.86 V 951.09 h 44.12 V 769.301 h 51.41"
         style="fill:#7ecd50;fill-opacity:1;fill-rule:nonzero;stroke:none"
         transform="matrix(0.13333333,0,0,-0.13333333,0,192.36)" />
      <path
         id="path5"
         d="m 1880.81,803.141 c -15.6,0 -20.57,12.597 -21.9,31.179 h -50.75 c 0.99,-38.152 17.58,-69.336 71.98,-69.336 50.42,0 71.98,29.524 71.98,66.68 0,37.481 -17.57,55.402 -59.04,76.301 -24.55,11.941 -29.53,18.574 -29.53,31.512 0,12.609 5.31,19.902 16.59,19.902 14.59,0 17.58,-13.27 18.58,-28.856 h 49.42 c -0.33,34.161 -15.25,67 -67.67,67 -44.45,0 -67.67,-25.203 -67.67,-63.691 0,-32.84 14.6,-49.754 53.41,-69.656 26.54,-13.606 34.17,-22.891 34.17,-38.156 0,-12.93 -4.65,-22.879 -19.57,-22.879"
         style="fill:#7ecd50;fill-opacity:1;fill-rule:nonzero;stroke:none"
         transform="matrix(0.13333333,0,0,-0.13333333,0,192.36)" />
      <path
         id="path6"
         d="m 2117.69,839.625 h -51.42 c -0.66,-13.605 -1.66,-34.504 -19.23,-34.504 -18.92,0 -21.57,28.203 -21.57,76.301 0,54.734 4.31,75.301 22.23,75.301 17.91,0 18.24,-19.239 18.57,-31.844 h 51.42 c -0.66,26.543 -9.62,72.312 -69.34,72.312 -51.41,0 -76.95,-34.492 -76.95,-115.437 0,-71.652 12.93,-116.77 74.97,-116.77 62.37,0 70.66,51.418 71.32,74.641"
         style="fill:#7ecd50;fill-opacity:1;fill-rule:nonzero;stroke:none"
         transform="matrix(0.13333333,0,0,-0.13333333,0,192.36)" />
      <path
         id="path7"
         d="m 2191.37,865.504 h 38.81 v -96.203 h 51.75 v 223.918 h -51.75 v -84.59 h -38.81 v 84.59 h -51.41 V 769.301 h 51.41 v 96.203"
         style="fill:#7ecd50;fill-opacity:1;fill-rule:nonzero;stroke:none"
         transform="matrix(0.13333333,0,0,-0.13333333,0,192.36)" />
      <path
         id="path8"
         d="m 2367.22,993.219 h -51.41 V 769.301 h 51.41 v 223.918"
         style="fill:#7ecd50;fill-opacity:1;fill-rule:nonzero;stroke:none"
         transform="matrix(0.13333333,0,0,-0.13333333,0,192.36)" />
      <path
         id="path9"
         d="m 2528.79,810.766 h -76.96 v 53.41 h 68 v 42.129 h -68 v 44.785 h 70.99 v 42.129 H 2401.41 V 769.301 h 121.41 l 5.97,41.465"
         style="fill:#7ecd50;fill-opacity:1;fill-rule:nonzero;stroke:none"
         transform="matrix(0.13333333,0,0,-0.13333333,0,192.36)" />
      <path
         id="path10"
         d="m 2602.8,808.441 v 145.293 h 9.95 c 24.22,0 30.52,-16.25 30.52,-67.332 0,-61.047 -6.97,-77.961 -30.85,-77.961 z m 94.54,77.297 c 0,74.305 -23.89,107.481 -82.27,107.481 h -64.02 V 769.301 h 62.03 c 60.7,0 84.26,36.816 84.26,116.437"
         style="fill:#7ecd50;fill-opacity:1;fill-rule:nonzero;stroke:none"
         transform="matrix(0.13333333,0,0,-0.13333333,0,192.36)" />
      <path
         id="path11"
         d="m 2852.62,810.766 h -76.96 v 53.41 h 68.01 v 42.129 h -68.01 v 44.785 h 71 v 42.129 H 2725.24 V 769.301 h 121.42 l 5.96,41.465"
         style="fill:#7ecd50;fill-opacity:1;fill-rule:nonzero;stroke:none"
         transform="matrix(0.13333333,0,0,-0.13333333,0,192.36)" />
      <path
         id="path12"
         d="m 2919,917.914 c 2.32,-9.617 8.95,-32.176 44.45,-148.613 h 55.4 v 223.918 h -45.45 v -41.133 c 0,-34.836 0.67,-71.66 2.99,-99.856 h -0.99 c -2.33,9.954 -9.96,35.5 -44.13,140.989 h -56.39 V 769.301 h 45.78 v 43.789 c 0,36.484 -1,77.949 -2.66,104.824 h 1"
         style="fill:#7ecd50;fill-opacity:1;fill-rule:nonzero;stroke:none"
         transform="matrix(0.13333333,0,0,-0.13333333,0,192.36)" />
      <path
         id="path13"
         d="m 3226.23,902.984 h -65.69 v 48.438 h 70.32 v 41.797 h -121.4 V 769.301 h 51.08 v 92.219 h 65.69 v 41.464"
         style="fill:#7ecd50;fill-opacity:1;fill-rule:nonzero;stroke:none"
         transform="matrix(0.13333333,0,0,-0.13333333,0,192.36)" />
      <path
         id="path14"
         d="m 3374.2,1051.93 h -40.46 v -41.13 h 40.46 v 41.13"
         style="fill:#7ecd50;fill-opacity:1;fill-rule:nonzero;stroke:none"
         transform="matrix(0.13333333,0,0,-0.13333333,0,192.36)" />
      <path
         id="path15"
         d="m 3345.68,836.305 c 0,-16.582 -2.99,-30.852 -20.58,-30.852 -18.24,0 -21.23,16.594 -21.23,31.184 v 156.582 h -51.75 V 838.297 c 0,-46.106 19.91,-73.313 71.66,-73.313 51.42,0 73.65,27.207 73.65,72.981 v 155.254 h -51.75 V 836.305"
         style="fill:#7ecd50;fill-opacity:1;fill-rule:nonzero;stroke:none"
         transform="matrix(0.13333333,0,0,-0.13333333,0,192.36)" />
      <path
         id="path16"
         d="m 3315.82,1051.93 h -40.47 v -41.13 h 40.47 v 41.13"
         style="fill:#7ecd50;fill-opacity:1;fill-rule:nonzero;stroke:none"
         transform="matrix(0.13333333,0,0,-0.13333333,0,192.36)" />
      <path
         id="path17"
         d="m 3491,899.664 h -11.94 v 55.399 h 15.26 c 16.92,0 23.56,-8.29 23.56,-26.532 0,-21.894 -7.31,-28.867 -26.88,-28.867 z m 75.3,-81.601 v 7.957 c 0,32.179 -8.29,46.445 -25.87,54.406 13.6,5.312 28.86,19.902 28.86,50.762 0,40.8 -22.22,62.031 -65.35,62.031 h -75.63 V 769.301 h 50.75 v 91.554 h 11.28 c 19.57,0 24.88,-6.964 24.88,-33.507 v -7.625 c 0,-21.895 1,-41.797 3.65,-50.422 h 49.76 c -1.33,9.953 -2.33,23.887 -2.33,48.762"
         style="fill:#7ecd50;fill-opacity:1;fill-rule:nonzero;stroke:none"
         transform="matrix(0.13333333,0,0,-0.13333333,0,192.36)" />
      <path
         id="path18"
         d="m 3741.18,839.625 c -0.67,-13.605 -1.66,-34.504 -19.24,-34.504 -18.92,0 -21.56,28.203 -21.56,76.301 0,54.734 4.3,75.301 22.22,75.301 17.91,0 18.24,-19.239 18.58,-31.844 h 51.41 c -0.66,26.543 -9.62,72.312 -69.33,72.312 -51.42,0 -76.96,-34.492 -76.96,-115.437 0,-71.652 12.93,-116.77 74.97,-116.77 62.37,0 70.66,51.418 71.32,74.641 h -51.41"
         style="fill:#7ecd50;fill-opacity:1;fill-rule:nonzero;stroke:none"
         transform="matrix(0.13333333,0,0,-0.13333333,0,192.36)" />
      <path
         id="path19"
         d="m 3956.83,769.301 v 223.918 h -51.75 v -84.59 h -38.81 v 84.59 h -51.41 V 769.301 h 51.41 v 96.203 h 38.81 v -96.203 h 51.75"
         style="fill:#7ecd50;fill-opacity:1;fill-rule:nonzero;stroke:none"
         transform="matrix(0.13333333,0,0,-0.13333333,0,192.36)" />
      <path
         id="path20"
         d="m 4041.46,955.063 h 15.26 c 16.92,0 23.55,-8.29 23.55,-26.532 0,-21.894 -7.3,-28.867 -26.87,-28.867 h -11.94 z m 0,-94.208 h 11.28 c 19.57,0 24.88,-6.964 24.88,-33.507 v -7.625 c 0,-21.895 1,-41.797 3.64,-50.422 h 49.77 c -1.33,9.953 -2.32,23.887 -2.32,48.762 v 7.957 c 0,32.179 -8.29,46.445 -25.88,54.406 13.6,5.312 28.86,19.902 28.86,50.762 0,40.8 -22.22,62.031 -65.35,62.031 h -75.63 V 769.301 h 50.75 v 91.554"
         style="fill:#7ecd50;fill-opacity:1;fill-rule:nonzero;stroke:none"
         transform="matrix(0.13333333,0,0,-0.13333333,0,192.36)" />
      <path
         id="path21"
         d="m 4209.35,993.219 h -51.43 V 769.301 h 51.43 v 223.918"
         style="fill:#7ecd50;fill-opacity:1;fill-rule:nonzero;stroke:none"
         transform="matrix(0.13333333,0,0,-0.13333333,0,192.36)" />
      <path
         id="path22"
         d="m 4318.5,907.965 c -24.54,11.941 -29.52,18.574 -29.52,31.512 0,12.609 5.31,19.902 16.59,19.902 14.59,0 17.58,-13.27 18.58,-28.856 h 49.42 c -0.33,34.161 -15.25,67 -67.67,67 -44.45,0 -67.67,-25.203 -67.67,-63.691 0,-32.84 14.6,-49.754 53.41,-69.656 26.53,-13.606 34.17,-22.891 34.17,-38.156 0,-12.93 -4.65,-22.879 -19.58,-22.879 -15.59,0 -20.57,12.597 -21.89,31.179 h -50.76 c 1,-38.152 17.59,-69.336 71.99,-69.336 50.42,0 71.98,29.524 71.98,66.68 0,37.481 -17.58,55.402 -59.05,76.301"
         style="fill:#7ecd50;fill-opacity:1;fill-rule:nonzero;stroke:none"
         transform="matrix(0.13333333,0,0,-0.13333333,0,192.36)" />
      <path
         id="path23"
         d="M 4528.2,993.219 H 4388.87 V 951.09 h 44.12 V 769.301 h 51.42 V 951.09 h 43.79 v 42.129"
         style="fill:#7ecd50;fill-opacity:1;fill-rule:nonzero;stroke:none"
         transform="matrix(0.13333333,0,0,-0.13333333,0,192.36)" />
      <path
         id="path24"
         d="m 4691.43,837.965 v 155.254 h -51.75 V 836.305 c 0,-16.582 -2.99,-30.852 -20.56,-30.852 -18.26,0 -21.23,16.594 -21.23,31.184 v 156.582 h -51.75 V 838.297 c 0,-46.106 19.9,-73.313 71.65,-73.313 51.41,0 73.64,27.207 73.64,72.981"
         style="fill:#7ecd50;fill-opacity:1;fill-rule:nonzero;stroke:none"
         transform="matrix(0.13333333,0,0,-0.13333333,0,192.36)" />
      <path
         id="path25"
         d="m 4857.66,831.664 c 0,37.481 -17.59,55.402 -59.05,76.301 -24.54,11.941 -29.52,18.574 -29.52,31.512 0,12.609 5.31,19.902 16.59,19.902 14.59,0 17.58,-13.27 18.57,-28.856 h 49.43 c -0.34,34.161 -15.26,67 -67.67,67 -44.45,0 -67.68,-25.203 -67.68,-63.691 0,-32.84 14.6,-49.754 53.41,-69.656 26.54,-13.606 34.17,-22.891 34.17,-38.156 0,-12.93 -4.65,-22.879 -19.57,-22.879 -15.59,0 -20.57,12.597 -21.89,31.179 h -50.76 c 0.99,-38.152 17.58,-69.336 71.99,-69.336 50.42,0 71.98,29.524 71.98,66.68"
         style="fill:#7ecd50;fill-opacity:1;fill-rule:nonzero;stroke:none"
         transform="matrix(0.13333333,0,0,-0.13333333,0,192.36)" />
      <path
         id="path26"
         d="m 1389.18,565.531 c -23.51,11.348 -32.15,20.266 -32.15,39.453 0,15.676 8.1,29.18 27.56,29.18 25.13,0 27.84,-23.504 28.65,-31.883 h 15.4 c -0.54,20.809 -10,45.399 -43.23,45.399 -28.92,0 -44.06,-20.262 -44.06,-44.051 0,-26.211 12.97,-38.906 40.8,-52.149 25.68,-12.433 33.52,-23.242 33.52,-44.316 0,-23.789 -11.09,-34.59 -31.35,-34.59 -21.35,0 -31.62,15.938 -32.97,35.938 h -15.67 c 1.62,-26.211 13.24,-49.453 48.09,-49.453 32.16,0 47.84,20.261 47.84,49.453 0,26.211 -10.54,41.609 -42.43,57.019"
         style="fill:#7ecd50;fill-opacity:1;fill-rule:nonzero;stroke:none"
         transform="matrix(0.13333333,0,0,-0.13333333,0,192.36)" />
      <path
         id="path27"
         d="m 1493.25,690.102 h -14.59 v -27.02 h 14.59 v 27.02"
         style="fill:#7ecd50;fill-opacity:1;fill-rule:nonzero;stroke:none"
         transform="matrix(0.13333333,0,0,-0.13333333,0,192.36)" />
      <path
         id="path28"
         d="m 1534.05,690.102 h -14.59 v -27.02 h 14.59 v 27.02"
         style="fill:#7ecd50;fill-opacity:1;fill-rule:nonzero;stroke:none"
         transform="matrix(0.13333333,0,0,-0.13333333,0,192.36)" />
      <path
         id="path29"
         d="m 1539.18,515.531 c 0,-25.664 -6.48,-42.957 -32.69,-42.957 -25.67,0 -32.16,20.535 -32.16,42.957 V 645.25 h -15.95 V 513.648 c 0,-33.242 12.71,-54.863 47.57,-54.863 37.02,0 48.63,22.969 48.63,56.485 v 129.98 h -15.4 V 515.531"
         style="fill:#7ecd50;fill-opacity:1;fill-rule:nonzero;stroke:none"
         transform="matrix(0.13333333,0,0,-0.13333333,0,192.36)" />
      <path
         id="path30"
         d="m 1625.42,475.27 h -18.65 v 156.199 h 18.92 c 33.23,0 47.56,-22.43 47.56,-73.778 0,-53.234 -11.35,-82.421 -47.83,-82.421 z m 4.05,169.98 H 1591.1 V 461.488 h 35.4 c 45.66,0 62.96,34.59 62.96,97.012 0,57.559 -19.46,86.75 -59.99,86.75"
         style="fill:#7ecd50;fill-opacity:1;fill-rule:nonzero;stroke:none"
         transform="matrix(0.13333333,0,0,-0.13333333,0,192.36)" />
      <path
         id="path31"
         d="m 1833.52,483.375 h -0.54 c -2.43,20 -23.51,117.82 -32.43,161.875 h -15.67 c -9.19,-44.863 -30.54,-140.527 -32.97,-162.414 h -0.27 c -2.44,21.887 -15.13,88.906 -29.46,162.414 h -16.21 l 36.49,-183.762 h 17.02 c 9.19,43.508 28.64,133.223 32.43,160.52 h 0.54 c 3.24,-24.59 22.69,-117.285 31.34,-160.52 h 17.3 l 39.99,183.762 h -15.67 c -8.65,-44.316 -28.11,-131.875 -31.89,-161.875"
         style="fill:#7ecd50;fill-opacity:1;fill-rule:nonzero;stroke:none"
         transform="matrix(0.13333333,0,0,-0.13333333,0,192.36)" />
      <path
         id="path32"
         d="m 1917.88,552.016 h 62.14 v 14.054 h -62.14 v 65.125 h 65.39 v 14.055 h -80.8 V 461.488 h 82.15 l 2.16,14.055 h -68.9 v 76.473"
         style="fill:#7ecd50;fill-opacity:1;fill-rule:nonzero;stroke:none"
         transform="matrix(0.13333333,0,0,-0.13333333,0,192.36)" />
      <path
         id="path33"
         d="m 2056.25,565.531 c -23.51,11.348 -32.16,20.266 -32.16,39.453 0,15.676 8.11,29.18 27.57,29.18 25.12,0 27.83,-23.504 28.64,-31.883 h 15.41 c -0.55,20.809 -10,45.399 -43.24,45.399 -28.92,0 -44.05,-20.262 -44.05,-44.051 0,-26.211 12.97,-38.906 40.8,-52.149 25.68,-12.433 33.51,-23.242 33.51,-44.316 0,-23.789 -11.07,-34.59 -31.35,-34.59 -21.35,0 -31.61,15.938 -32.97,35.938 h -15.67 c 1.62,-26.211 13.24,-49.453 48.1,-49.453 32.16,0 47.84,20.261 47.84,49.453 0,26.211 -10.54,41.609 -42.43,57.019"
         style="fill:#7ecd50;fill-opacity:1;fill-rule:nonzero;stroke:none"
         transform="matrix(0.13333333,0,0,-0.13333333,0,192.36)" />
      <path
         id="path34"
         d="m 2109.23,631.195 h 41.62 V 461.488 h 15.4 v 169.707 h 41.62 v 14.055 h -98.64 v -14.055"
         style="fill:#7ecd50;fill-opacity:1;fill-rule:nonzero;stroke:none"
         transform="matrix(0.13333333,0,0,-0.13333333,0,192.36)" />
      <path
         id="path35"
         d="m 2262.48,475.27 h -18.65 v 156.199 h 18.92 c 33.23,0 47.56,-22.43 47.56,-73.778 0,-53.234 -11.35,-82.421 -47.83,-82.421 z m 4.05,169.98 h -38.37 V 461.488 h 35.4 c 45.66,0 62.96,34.59 62.96,97.012 0,57.559 -19.45,86.75 -59.99,86.75"
         style="fill:#7ecd50;fill-opacity:1;fill-rule:nonzero;stroke:none"
         transform="matrix(0.13333333,0,0,-0.13333333,0,192.36)" />
      <path
         id="path36"
         d="m 2372.49,552.016 h 62.15 v 14.054 h -62.15 v 65.125 h 65.4 v 14.055 h -80.81 V 461.488 h 82.15 l 2.16,14.055 h -68.9 v 76.473"
         style="fill:#7ecd50;fill-opacity:1;fill-rule:nonzero;stroke:none"
         transform="matrix(0.13333333,0,0,-0.13333333,0,192.36)" />
      <path
         id="path37"
         d="m 2543.83,515.531 c 0,-25.664 -6.48,-42.957 -32.69,-42.957 -25.68,0 -32.16,20.535 -32.16,42.957 V 645.25 h -15.95 V 513.648 c 0,-33.242 12.71,-54.863 47.57,-54.863 37.02,0 48.63,22.969 48.63,56.485 v 129.98 h -15.4 V 515.531"
         style="fill:#7ecd50;fill-opacity:1;fill-rule:nonzero;stroke:none"
         transform="matrix(0.13333333,0,0,-0.13333333,0,192.36)" />
      <path
         id="path38"
         d="m 2578.99,631.195 h 41.62 V 461.488 h 15.4 v 169.707 h 41.61 v 14.055 h -98.63 v -14.055"
         style="fill:#7ecd50;fill-opacity:1;fill-rule:nonzero;stroke:none"
         transform="matrix(0.13333333,0,0,-0.13333333,0,192.36)" />
      <path
         id="path39"
         d="m 2737.36,565.531 c -23.51,11.348 -32.16,20.266 -32.16,39.453 0,15.676 8.12,29.18 27.57,29.18 25.13,0 27.83,-23.504 28.64,-31.883 h 15.41 c -0.55,20.809 -10,45.399 -43.24,45.399 -28.92,0 -44.04,-20.262 -44.04,-44.051 0,-26.211 12.96,-38.906 40.8,-52.149 25.67,-12.433 33.5,-23.242 33.5,-44.316 0,-23.789 -11.07,-34.59 -31.34,-34.59 -21.35,0 -31.62,15.938 -32.97,35.938 h -15.68 c 1.62,-26.211 13.24,-49.453 48.11,-49.453 32.16,0 47.83,20.261 47.83,49.453 0,26.211 -10.54,41.609 -42.43,57.019"
         style="fill:#7ecd50;fill-opacity:1;fill-rule:nonzero;stroke:none"
         transform="matrix(0.13333333,0,0,-0.13333333,0,192.36)" />
      <path
         id="path40"
         d="m 2851.97,473.109 c -30,0 -34.59,41.887 -34.59,82.149 0,33.508 4.05,78.097 36.21,78.097 27.83,0 29.18,-30.539 29.45,-36.75 h 15.95 c -0.55,9.727 -2.44,51.348 -45.14,51.348 -39.99,0 -52.96,-41.621 -52.96,-92.969 0,-42.148 2.97,-95.925 50.53,-95.925 42.43,0 47.3,41.074 48.11,52.421 h -15.95 c -0.81,-10.265 -5.14,-38.371 -31.61,-38.371"
         style="fill:#7ecd50;fill-opacity:1;fill-rule:nonzero;stroke:none"
         transform="matrix(0.13333333,0,0,-0.13333333,0,192.36)" />
      <path
         id="path41"
         d="m 3007.38,565.797 h -65.13 v 79.453 h -15.67 V 461.488 h 15.67 v 90.254 h 65.13 v -90.254 h 15.4 V 645.25 h -15.4 v -79.453"
         style="fill:#7ecd50;fill-opacity:1;fill-rule:nonzero;stroke:none"
         transform="matrix(0.13333333,0,0,-0.13333333,0,192.36)" />
      <path
         id="path42"
         d="m 3076.31,552.016 h 62.15 v 14.054 h -62.15 v 65.125 h 65.39 v 14.055 h -80.8 V 461.488 h 82.16 l 2.16,14.055 h -68.91 v 76.473"
         style="fill:#7ecd50;fill-opacity:1;fill-rule:nonzero;stroke:none"
         transform="matrix(0.13333333,0,0,-0.13333333,0,192.36)" />
      <path
         id="path43"
         d="m 3210.37,562.016 h -26.21 v 69.718 h 27.83 c 21.62,0 30.53,-13.781 30.53,-33.234 0,-22.156 -8.65,-36.484 -32.15,-36.484 z m 46.21,-53.778 c 0,25.137 -4.87,41.348 -22.97,47.293 11.88,3.782 24.86,15.403 24.86,43.235 0,28.914 -15.14,46.484 -44.86,46.484 h -45.13 V 461.488 h 15.68 V 548.5 h 25.12 c 26.49,0 31.62,-14.316 31.62,-41.074 v -5.946 c 0,-14.589 0,-31.613 2.43,-39.992 h 15.95 c -2.44,10 -2.7,23.782 -2.7,39.453 v 7.297"
         style="fill:#7ecd50;fill-opacity:1;fill-rule:nonzero;stroke:none"
         transform="matrix(0.13333333,0,0,-0.13333333,0,192.36)" />
      <path
         id="path44"
         d="m 3354.71,502.289 c 0,-18.914 -2.7,-29.18 -18.91,-29.18 -4.6,0 -8.66,0.274 -11.9,0.813 v -13.781 c 2.97,-0.547 8.64,-1.082 13.52,-1.082 29.99,0 32.69,21.882 32.69,44.851 v 141.34 h -15.4 V 502.289"
         style="fill:#7ecd50;fill-opacity:1;fill-rule:nonzero;stroke:none"
         transform="matrix(0.13333333,0,0,-0.13333333,0,192.36)" />
      <path
         id="path45"
         d="m 3485.79,515.531 c 0,-25.664 -6.49,-42.957 -32.71,-42.957 -25.66,0 -32.16,20.535 -32.16,42.957 V 645.25 h -15.93 V 513.648 c 0,-33.242 12.69,-54.863 47.55,-54.863 37.03,0 48.65,22.969 48.65,56.485 v 129.98 h -15.4 V 515.531"
         style="fill:#7ecd50;fill-opacity:1;fill-rule:nonzero;stroke:none"
         transform="matrix(0.13333333,0,0,-0.13333333,0,192.36)" />
      <path
         id="path46"
         d="m 3584.98,633.902 c 28.1,0 29.46,-28.652 30,-34.863 h 15.67 c -0.54,11.082 -3.52,48.914 -45.4,48.914 -36.49,0 -54.85,-32.43 -54.85,-94.316 0,-51.074 9.18,-94.578 49.45,-94.578 24.04,0 31.88,11.621 37.02,23.777 0,-10.262 0.54,-16.484 1.07,-21.348 h 12.71 v 99.719 h -49.99 v -13.781 h 34.59 v -8.653 c 0,-42.695 -5.67,-65.937 -33.24,-65.937 -27.57,0 -35.13,34.055 -35.13,81.074 0,48.645 10.26,79.992 38.1,79.992"
         style="fill:#7ecd50;fill-opacity:1;fill-rule:nonzero;stroke:none"
         transform="matrix(0.13333333,0,0,-0.13333333,0,192.36)" />
      <path
         id="path47"
         d="m 3680.4,552.016 h 62.15 v 14.054 h -62.15 v 65.125 h 65.4 V 645.25 H 3665 V 461.488 h 82.14 l 2.16,14.055 h -68.9 v 76.473"
         style="fill:#7ecd50;fill-opacity:1;fill-rule:nonzero;stroke:none"
         transform="matrix(0.13333333,0,0,-0.13333333,0,192.36)" />
      <path
         id="path48"
         d="m 3856.61,567.691 c 0,-29.726 0.27,-57.558 1.62,-83.234 h -0.27 c -2.43,7.57 -9.46,24.055 -65.12,160.793 h -20.28 V 461.488 h 14.87 v 78.371 c 0,32.969 0,64.317 -1.35,87.286 h 0.27 c 1.89,-6.758 8.11,-22.707 65.93,-165.657 h 19.19 V 645.25 h -14.86 v -77.559"
         style="fill:#7ecd50;fill-opacity:1;fill-rule:nonzero;stroke:none"
         transform="matrix(0.13333333,0,0,-0.13333333,0,192.36)" />
      <path
         id="path49"
         d="m 3943.92,475.27 h -18.64 v 156.199 h 18.91 c 33.24,0 47.56,-22.43 47.56,-73.778 0,-53.234 -11.34,-82.421 -47.83,-82.421 z m 4.05,169.98 H 3909.6 V 461.488 h 35.4 c 45.67,0 62.96,34.59 62.96,97.012 0,57.559 -19.45,86.75 -59.99,86.75"
         style="fill:#7ecd50;fill-opacity:1;fill-rule:nonzero;stroke:none"
         transform="matrix(0.13333333,0,0,-0.13333333,0,192.36)" />
      <path
         id="path50"
         d="m 4095.82,554.723 c -6.49,-26.485 -16.22,-62.16 -18.65,-77.024 h -0.53 c -2.44,17.031 -10,50.813 -16.49,77.024 l -21.62,90.527 h -16.48 l 45.4,-183.762 h 19.19 l 47.83,183.762 h -15.95 l -22.7,-90.527"
         style="fill:#7ecd50;fill-opacity:1;fill-rule:nonzero;stroke:none"
         transform="matrix(0.13333333,0,0,-0.13333333,0,192.36)" />
      <path
         id="path51"
         d="m 4171.24,552.016 h 62.15 v 14.054 h -62.15 v 65.125 h 65.4 v 14.055 h -80.81 V 461.488 h 82.15 l 2.17,14.055 h -68.91 v 76.473"
         style="fill:#7ecd50;fill-opacity:1;fill-rule:nonzero;stroke:none"
         transform="matrix(0.13333333,0,0,-0.13333333,0,192.36)" />
      <path
         id="path52"
         d="m 4305.3,562.016 h -26.21 v 69.718 h 27.83 c 21.62,0 30.54,-13.781 30.54,-33.234 0,-22.156 -8.65,-36.484 -32.16,-36.484 z m 46.21,-53.778 c 0,25.137 -4.86,41.348 -22.97,47.293 11.89,3.782 24.86,15.403 24.86,43.235 0,28.914 -15.13,46.484 -44.86,46.484 h -45.13 V 461.488 h 15.68 V 548.5 h 25.12 c 26.49,0 31.62,-14.316 31.62,-41.074 v -5.946 c 0,-14.589 0,-31.613 2.44,-39.992 h 15.94 c -2.43,10 -2.7,23.782 -2.7,39.453 v 7.297"
         style="fill:#7ecd50;fill-opacity:1;fill-rule:nonzero;stroke:none"
         transform="matrix(0.13333333,0,0,-0.13333333,0,192.36)" />
      <path
         id="path53"
         d="m 4426.38,474.73 h -26.48 v 79.446 h 22.7 c 25.68,0 39.99,-12.696 39.99,-39.18 0,-25.402 -12.69,-40.266 -36.21,-40.266 z m -26.48,157.278 h 26.22 c 20.26,0 30.53,-12.969 30.53,-32.16 0,-21.348 -9.73,-32.43 -33.78,-32.43 h -22.97 z m 48.91,-70.266 c 11.08,3.789 23.25,14.328 23.25,39.453 0,28.106 -16.76,44.055 -42.7,44.055 H 4384.5 V 461.488 h 43.24 c 31.61,0 50.53,21.348 50.53,53.782 0,28.64 -15.13,41.882 -29.46,46.472"
         style="fill:#7ecd50;fill-opacity:1;fill-rule:nonzero;stroke:none"
         transform="matrix(0.13333333,0,0,-0.13333333,0,192.36)" />
      <path
         id="path54"
         d="m 4527.2,538.238 c 10,41.61 18.11,76.473 20.54,92.149 h 0.55 c 2.43,-13.516 9.72,-43.242 21.88,-92.149 z m 11.36,107.012 -44.86,-183.762 h 15.4 l 14.86,62.696 h 49.73 l 15.13,-62.696 h 16.75 l -46.75,183.762 h -20.26"
         style="fill:#7ecd50;fill-opacity:1;fill-rule:nonzero;stroke:none"
         transform="matrix(0.13333333,0,0,-0.13333333,0,192.36)" />
      <path
         id="path55"
         d="m 4711.53,567.691 c 0,-29.726 0.27,-57.558 1.62,-83.234 h -0.27 c -2.44,7.57 -9.46,24.055 -65.13,160.793 h -20.26 V 461.488 h 14.86 v 78.371 c 0,32.969 0,64.317 -1.35,87.286 h 0.26 c 1.9,-6.758 8.11,-22.707 65.94,-165.657 h 19.19 V 645.25 h -14.86 v -77.559"
         style="fill:#7ecd50;fill-opacity:1;fill-rule:nonzero;stroke:none"
         transform="matrix(0.13333333,0,0,-0.13333333,0,192.36)" />
      <path
         id="path56"
         d="m 4798.83,475.27 h -18.64 v 156.199 h 18.92 c 33.24,0 47.56,-22.43 47.56,-73.778 0,-53.234 -11.35,-82.421 -47.84,-82.421 z m 4.06,169.98 h -38.37 V 461.488 h 35.4 c 45.67,0 62.97,34.59 62.97,97.012 0,57.559 -19.47,86.75 -60,86.75"
         style="fill:#7ecd50;fill-opacity:1;fill-rule:nonzero;stroke:none"
         transform="matrix(0.13333333,0,0,-0.13333333,0,192.36)" />
      <path
         id="path57"
         d="m 1049.59,897.074 c 8.32,-12.039 21.65,-18.484 35.23,-18.484 8.42,0 16.93,2.48 24.4,7.625 19.52,13.605 24.32,40.265 10.85,59.777 -73.78,106.618 -195.242,170.238 -324.949,170.238 -218.328,0 -395.164,-176.695 -395.164,-394.898 0,-218.055 176.973,-394.891 395.164,-394.891 126.406,0 245.129,60.321 319.459,162.411 13.88,19.101 9.62,46.027 -9.48,59.902 -7.58,5.519 -16.39,8.164 -25.13,8.164 -13.29,0 -26.41,-6.121 -34.78,-17.637 -56.327,-77.226 -147.295,-127.23 -250.069,-127.23 -170.789,0.269 -309.012,138.492 -309.297,309.144 0.285,170.793 138.508,308.885 309.297,309.165 0.149,0 0.274,0 0.422,0 101.512,0 196.414,-49.868 254.047,-133.286"
         style="fill:#7ecd50;fill-opacity:1;fill-rule:nonzero;stroke:none"
         transform="matrix(0.13333333,0,0,-0.13333333,0,192.36)" />
      <path
         id="path58"
         d="m 665.387,518.891 h 254.871 c 20.39,0 36.797,16.535 36.926,36.925 v 3.731 c -0.129,20.391 -16.536,36.805 -36.926,36.922 H 714 c -4.484,0 -8.215,3.73 -8.215,8.203 v 64.66 c 0.129,4.473 3.731,8.074 8.215,8.203 h 141.727 c 20.39,0 36.808,16.531 36.925,36.922 v 3.731 c 0,20.39 -16.535,36.796 -36.925,36.925 H 714 c -4.484,0.125 -8.086,3.731 -8.215,8.203 v 64.657 c 0.129,4.347 3.731,7.949 8.332,7.949 h 206.016 c 20.39,0 36.797,16.543 36.922,36.926 v 3.73 c 0,20.391 -16.532,36.805 -36.922,36.934 H 665.258 c -20.02,-0.129 -36.426,-16.047 -36.922,-36.055 V 763.199 c 0,-4.484 -3.731,-8.215 -8.203,-8.215 -20.391,0 -36.809,-16.531 -36.926,-36.921 v -3.731 c 0.117,-20.391 16.535,-36.797 36.926,-36.926 h 0.117 c 4.48,-0.125 8.086,-3.73 8.211,-8.203 V 555.816 c 0,-20.39 16.535,-36.796 36.926,-36.925"
         style="fill:#7ecd50;fill-opacity:1;fill-rule:nonzero;stroke:none"
         transform="matrix(0.13333333,0,0,-0.13333333,0,192.36)" />
    </g>
  </g>
</svg>
