<?xml version="1.0" encoding="UTF-8" standalone="no"?>
<!-- Created with Friction - https://friction.graphics -->
<svg xmlns:xlink="http://www.w3.org/1999/xlink" viewBox="0 0 300 300" xmlns="http://www.w3.org/2000/svg">
 <g transform="translate(127.471 128)">
  <g transform="translate(22.0112 22.0445)">
   <g>
    <animateTransform type="rotate" attributeName="transform" repeatCount="indefinite" keySplines="0 0 1 1;0.333333 0.333333 0.666667 0.666667;0.0463396 0.796163 0.919098 0;0.130405 0.668645 0.464949 1;0.0228058 0 1 1;0 0 1 1" calcMode="spline" values="-63.7061;-63.7061;-63.7061;246.948;246.948;0;0" dur="9.96667s" keyTimes="0;0;0;0.638796;0.638844;0.765886;1"/>
    <g>
     <animateTransform type="scale" attributeName="transform" repeatCount="indefinite" keySplines="0 0 1 1;0.333333 0.0792569 0.666667 1;0.333333 0 0.666667 0.31683;0.333333 0.010822 0.666667 1;0.333333 0 0.666667 0.300335;0.333333 0.0744536 0.666667 0.925546;0.333333 0.699665 0.666667 1;0.333333 7.47981e-16 0.666667 0.989178;0.333333 0.68317 0.666667 1;0.333333 5.25135e-14 0.666667 0.920743;0 0.333333 1 0.666667;0.333333 0.0229885 0.666667 0.977011;0 0 1 1" calcMode="spline" values="1 1;1 1;0.987354 1;0.987564 1;1.05859 1;1.05507 1;0.444934 1;0.43831 1;0.512436 1;0.51266 1;0.5 1;0.5 1;1 1;1 1" dur="9.96667s" keyTimes="0;0.491639;0.550387;0.555184;0.578136;0.58194;0.618729;0.622533;0.645485;0.650282;0.70903;0.882943;0.979933;1"/>
     <g>
      <animateTransform type="scale" attributeName="transform" repeatCount="indefinite" keySplines="0 0 1 1;0.333333 0.0792569 0.666667 1;0.333333 0 0.666667 0.31683;0.333333 0.010822 0.666667 1;0.333333 0 0.666667 0.300335;0.333333 0.0744536 0.666667 0.925546;0.333333 0.699665 0.666667 1;0.333333 7.47981e-16 0.666667 0.989178;0.333333 0.68317 0.666667 1;0.333333 5.25135e-14 0.666667 0.920743;0 0.333333 1 0.666667;0.333333 0.0229885 0.666667 0.977011;0 0 1 1" calcMode="spline" values="1 1;1 1;1 0.987354;1 0.987564;1 1.05859;1 1.05507;1 0.444934;1 0.43831;1 0.512436;1 0.51266;1 0.5;1 0.5;1 1;1 1" dur="9.96667s" keyTimes="0;0.491639;0.550387;0.555184;0.578136;0.58194;0.618729;0.622533;0.645485;0.650282;0.70903;0.882943;0.979933;1"/>
      <g transform="skewX(0) skewY(0)">
       <g transform="translate(-127.471 -128)">
        <g id="Group1">
         <g transform="translate(0 0)">
          <g transform="translate(127.471 128)">
           <g transform="rotate(0)">
            <g transform="scale(1 1)">
             <g transform="skewX(0) skewY(0)">
              <g transform="translate(0 0)" opacity="1">
               <ellipse id="Circle1" cx="0" cy="0" stroke-width="2" stroke-linejoin="round" stroke="rgba(128, 128, 128, 0.8)" stroke-linecap="round" rx="118" ry="118" fill="none"/>
              </g>
             </g>
            </g>
           </g>
          </g>
         </g>
         <g transform="translate(0.852189 7.24361)">
          <g transform="translate(10.9223 104.275)">
           <g transform="rotate(0)">
            <g>
             <animateTransform type="scale" attributeName="transform" repeatCount="indefinite" keySplines="0 0 1 1;0.4874 0.590102 0.512598 0.690848;0.333332 0.851211 0.666666 1;0.333334 0 0.666667 1;0 0.333333 1 0.666667;0 0 1 1;0 0 1 1" calcMode="spline" values="0 1;0 1;0.683594 1;1.00421 1;1 1;1 1;0 1;0 1" dur="9.96667s" keyTimes="0;0.0401338;0.0468227;0.0598472;0.0668896;0.762542;0.765886;1"/>
             <g>
              <animateTransform type="scale" attributeName="transform" repeatCount="indefinite" keySplines="0 0 1 1;0.4874 0.590102 0.512598 0.690848;0.333332 0.851211 0.666666 1;0.333334 0 0.666667 1;0 0.333333 1 0.666667;0 0 1 1;0 0 1 1" calcMode="spline" values="1 0;1 0;1 0.683594;1 1.00421;1 1;1 1;1 0;1 0" dur="9.96667s" keyTimes="0;0.0401338;0.0468227;0.0598472;0.0668896;0.762542;0.765886;1"/>
              <g transform="skewX(0) skewY(0)">
               <g transform="translate(-0.852189 -7.24361)" opacity="1">
                <ellipse id="Circle6" cx="0.852189" cy="7.24361" stroke-width="1" stroke-linejoin="round" stroke="url(#0x000055840ec281a0)" stroke-linecap="round" rx="15" ry="15" fill="url(#0x000055840d307b80)"/>
               </g>
              </g>
             </g>
            </g>
           </g>
          </g>
         </g>
         <g transform="translate(12 12)">
          <g transform="translate(-0.225516 99.5183)">
           <g transform="rotate(-45)">
            <g>
             <animateTransform type="scale" attributeName="transform" repeatCount="indefinite" keySplines="0 0 1 1;0.487401 0.590103 0.512598 0.690848;0.333333 0.85121 0.666666 1;0.333334 0 0.666667 1;0 0.333333 1 0.666667;0 0 1 1;0 0 1 1" calcMode="spline" values="0 1;0 1;0.546875 1;0.803369 1;0.8 1;0.8 1;0 1;0 1" dur="9.96667s" keyTimes="0;0.0434783;0.0501672;0.0631917;0.0702341;0.762542;0.765886;1"/>
             <g>
              <animateTransform type="scale" attributeName="transform" repeatCount="indefinite" keySplines="0 0 1 1;0.487401 0.590103 0.512598 0.690848;0.333333 0.85121 0.666666 1;0.333334 0 0.666667 1;0 0.333333 1 0.666667;0 0 1 1;0 0 1 1" calcMode="spline" values="1 0;1 0;1 0.546875;1 0.803369;1 0.8;1 0.8;1 0;1 0" dur="9.96667s" keyTimes="0;0.0434783;0.0501672;0.0631917;0.0702341;0.762542;0.765886;1"/>
              <g transform="skewX(0) skewY(0)">
               <g transform="translate(-12 -12)" opacity="1">
                <g id="Group3">
                 <g transform="translate(12 12)">
                  <g transform="translate(0 0)">
                   <g transform="rotate(0)">
                    <g transform="scale(1 1)">
                     <g transform="skewX(0) skewY(0)">
                      <g transform="translate(-12 -12)" opacity="1">
                       <path id="Path" stroke-width="2" stroke-linejoin="miter" stroke="rgba(248, 245, 244, 1)" fill-rule="evenodd" stroke-linecap="butt" d="M2 9Q2.14738 9 2.29405 9.01445Q2.44072 9.02889 2.58527 9.05764Q2.72982 9.0864 2.87085 9.12918Q3.01189 9.17196 3.14805 9.22836Q3.28421 9.28476 3.41419 9.35423Q3.54417 9.42371 3.66671 9.50559Q3.78925 9.58747 3.90318 9.68097Q4.01711 9.77446 4.12132 9.87868Q4.22553 9.98289 4.31903 10.0968Q4.41253 10.2107 4.49441 10.3333Q4.57629 10.4558 4.64576 10.5858Q4.71524 10.7158 4.77164 10.8519Q4.82804 10.9881 4.87082 11.1291Q4.9136 11.2702 4.94236 11.4147Q4.97111 11.5593 4.98555 11.7059Q5 11.8526 5 12Q5 12.1474 4.98555 12.2941Q4.97111 12.4407 4.94236 12.5853Q4.9136 12.7298 4.87082 12.8709Q4.82804 13.0119 4.77164 13.148Q4.71524 13.2842 4.64576 13.4142Q4.57629 13.5442 4.49441 13.6667Q4.41253 13.7893 4.31903 13.9032Q4.22553 14.0171 4.12132 14.1213Q4.01711 14.2255 3.90318 14.319Q3.78925 14.4125 3.66671 14.4944Q3.54417 14.5763 3.41419 14.6458Q3.28421 14.7152 3.14805 14.7716Q3.01189 14.828 2.87085 14.8708Q2.72982 14.9136 2.58527 14.9424Q2.44072 14.9711 2.29405 14.9856Q2.14738 15 2 15L2 17Q2 17.0983 2.00963 17.196Q2.01926 17.2938 2.03843 17.3902Q2.0576 17.4865 2.08612 17.5806Q2.11464 17.6746 2.15224 17.7654Q2.18984 17.8561 2.23616 17.9428Q2.28247 18.0294 2.33706 18.1111Q2.39165 18.1928 2.45398 18.2688Q2.51631 18.3447 2.58579 18.4142Q2.65526 18.4837 2.73121 18.546Q2.80716 18.6083 2.88886 18.6629Q2.97055 18.7175 3.05721 18.7638Q3.14386 18.8102 3.23463 18.8478Q3.32541 18.8854 3.41943 18.9139Q3.51345 18.9424 3.60982 18.9616Q3.70619 18.9807 3.80397 18.9904Q3.90175 19 4 19L20 19Q20.0983 19 20.196 18.9904Q20.2938 18.9807 20.3902 18.9616Q20.4865 18.9424 20.5806 18.9139Q20.6746 18.8854 20.7654 18.8478Q20.8561 18.8102 20.9428 18.7638Q21.0294 18.7175 21.1111 18.6629Q21.1928 18.6083 21.2688 18.546Q21.3447 18.4837 21.4142 18.4142Q21.4837 18.3447 21.546 18.2688Q21.6084 18.1928 21.6629 18.1111Q21.7175 18.0294 21.7638 17.9428Q21.8102 17.8561 21.8478 17.7654Q21.8854 17.6746 21.9139 17.5806Q21.9424 17.4865 21.9616 17.3902Q21.9807 17.2938 21.9904 17.196Q22 17.0983 22 17L22 15Q21.8526 15 21.7059 14.9856Q21.5593 14.9711 21.4147 14.9424Q21.2702 14.9136 21.1291 14.8708Q20.9881 14.828 20.8519 14.7716Q20.7158 14.7152 20.5858 14.6458Q20.4558 14.5763 20.3333 14.4944Q20.2107 14.4125 20.0968 14.319Q19.9829 14.2255 19.8787 14.1213Q19.7745 14.0171 19.681 13.9032Q19.5875 13.7893 19.5056 13.6667Q19.4237 13.5442 19.3542 13.4142Q19.2848 13.2842 19.2284 13.148Q19.172 13.0119 19.1292 12.8709Q19.0864 12.7298 19.0576 12.5853Q19.0289 12.4407 19.0144 12.2941Q19 12.1474 19 12Q19 11.8526 19.0144 11.7059Q19.0289 11.5593 19.0576 11.4147Q19.0864 11.2702 19.1292 11.1291Q19.172 10.9881 19.2284 10.8519Q19.2848 10.7158 19.3542 10.5858Q19.4237 10.4558 19.5056 10.3333Q19.5875 10.2107 19.681 10.0968Q19.7745 9.98289 19.8787 9.87868Q19.9829 9.77446 20.0968 9.68097Q20.2107 9.58747 20.3333 9.50559Q20.4558 9.42371 20.5858 9.35423Q20.7158 9.28476 20.8519 9.22836Q20.9881 9.17196 21.1291 9.12918Q21.2702 9.0864 21.4147 9.05764Q21.5593 9.02889 21.7059 9.01445Q21.8526 9 22 9L22 7Q22 6.90175 21.9904 6.80397Q21.9807 6.70619 21.9616 6.60982Q21.9424 6.51345 21.9139 6.41943Q21.8854 6.32541 21.8478 6.23463Q21.8102 6.14386 21.7638 6.05721Q21.7175 5.97055 21.6629 5.88886Q21.6084 5.80716 21.546 5.73121Q21.4837 5.65526 21.4142 5.58579Q21.3447 5.51631 21.2688 5.45398Q21.1928 5.39165 21.1111 5.33706Q21.0294 5.28247 20.9428 5.23616Q20.8561 5.18984 20.7654 5.15224Q20.6746 5.11464 20.5806 5.08612Q20.4865 5.0576 20.3902 5.03843Q20.2938 5.01926 20.196 5.00963Q20.0983 5 20 5L4 5Q3.90175 5 3.80397 5.00963Q3.70619 5.01926 3.60982 5.03843Q3.51345 5.0576 3.41943 5.08612Q3.32541 5.11464 3.23463 5.15224Q3.14386 5.18984 3.05721 5.23616Q2.97055 5.28247 2.88886 5.33706Q2.80716 5.39165 2.73121 5.45398Q2.65526 5.51631 2.58579 5.58579Q2.51631 5.65526 2.45398 5.73121Q2.39165 5.80716 2.33706 5.88886Q2.28247 5.97055 2.23616 6.05721Q2.18984 6.14386 2.15224 6.23463Q2.11464 6.32541 2.08612 6.41943Q2.0576 6.51345 2.03843 6.60982Q2.01926 6.70619 2.00963 6.80397Q2 6.90175 2 7L2 9Z" fill="none"/>
                      </g>
                     </g>
                    </g>
                   </g>
                  </g>
                 </g>
                 <g transform="translate(13 6)">
                  <g transform="translate(0 0)">
                   <g transform="rotate(0)">
                    <g transform="scale(1 1)">
                     <g transform="skewX(0) skewY(0)">
                      <g transform="translate(-13 -6)" opacity="1">
                       <path id="Path0" stroke-width="2" stroke-linejoin="miter" stroke="rgba(248, 245, 244, 1)" fill-rule="evenodd" stroke-linecap="butt" d="M13 5L13 7" fill="none"/>
                      </g>
                     </g>
                    </g>
                   </g>
                  </g>
                 </g>
                 <g transform="translate(13 18)">
                  <g transform="translate(0 0)">
                   <g transform="rotate(0)">
                    <g transform="scale(1 1)">
                     <g transform="skewX(0) skewY(0)">
                      <g transform="translate(-13 -18)" opacity="1">
                       <path id="Path1" stroke-width="2" stroke-linejoin="miter" stroke="rgba(248, 245, 244, 1)" fill-rule="evenodd" stroke-linecap="butt" d="M13 17L13 19" fill="none"/>
                      </g>
                     </g>
                    </g>
                   </g>
                  </g>
                 </g>
                 <g transform="translate(13 12)">
                  <g transform="translate(0 0)">
                   <g transform="rotate(0)">
                    <g transform="scale(1 1)">
                     <g transform="skewX(0) skewY(0)">
                      <g transform="translate(-13 -12)" opacity="1">
                       <path id="Path2" stroke-width="2" stroke-linejoin="miter" stroke="rgba(248, 245, 244, 1)" fill-rule="evenodd" stroke-linecap="butt" d="M13 11L13 13" fill="none"/>
                      </g>
                     </g>
                    </g>
                   </g>
                  </g>
                 </g>
                </g>
               </g>
              </g>
             </g>
            </g>
           </g>
          </g>
         </g>
         <g transform="translate(0.852188 7.24361)">
          <g transform="translate(170.568 10.293)">
           <g transform="rotate(0)">
            <g>
             <animateTransform type="scale" attributeName="transform" repeatCount="indefinite" keySplines="0 0 1 1;0.494584 0.615446 0.505412 0.710377;0.333332 0.848905 0.666666 1;0.333334 0 0.666667 1;0 0.333333 1 0.666667;0 0 1 1;0 0 1 1" calcMode="spline" values="0 1;0 1;0.739692 1;1.01203 1;1 1;1 1;0 1;0 1" dur="9.96667s" keyTimes="0;0.0301003;0.0367893;0.047522;0.0535117;0.762542;0.765886;1"/>
             <g>
              <animateTransform type="scale" attributeName="transform" repeatCount="indefinite" keySplines="0 0 1 1;0.494584 0.615446 0.505412 0.710377;0.333332 0.848905 0.666666 1;0.333334 0 0.666667 1;0 0.333333 1 0.666667;0 0 1 1;0 0 1 1" calcMode="spline" values="1 0;1 0;1 0.739692;1 1.01203;1 1;1 1;1 0;1 0" dur="9.96667s" keyTimes="0;0.0301003;0.0367893;0.047522;0.0535117;0.762542;0.765886;1"/>
              <g transform="skewX(0) skewY(0)">
               <g transform="translate(-0.852188 -7.24361)" opacity="1">
                <ellipse id="Circle5" cx="0.852189" cy="7.24361" stroke-width="1" stroke-linejoin="round" stroke="url(#0x000055840e4a3040)" stroke-linecap="round" rx="10" ry="10" fill="url(#0x000055840d3074a0)"/>
               </g>
              </g>
             </g>
            </g>
           </g>
          </g>
         </g>
         <g transform="translate(0.852189 7.24361)">
          <g transform="translate(217.506 195.608)">
           <g transform="rotate(0)">
            <g>
             <animateTransform type="scale" attributeName="transform" repeatCount="indefinite" keySplines="0 0 1 1;0.494584 0.615446 0.505412 0.710377;0.333332 0.848905 0.666666 1;0.333334 0 0.666667 1;0 0.333333 1 0.666667;0 0 1 1;0 0 1 1" calcMode="spline" values="0 1;0 1;0.739692 1;1.01203 1;1 1;1 1;0 1;0 1" dur="9.96667s" keyTimes="0;0.0234114;0.0301003;0.040833;0.0468227;0.762542;0.765886;1"/>
             <g>
              <animateTransform type="scale" attributeName="transform" repeatCount="indefinite" keySplines="0 0 1 1;0.494584 0.615446 0.505412 0.710377;0.333332 0.848905 0.666666 1;0.333334 0 0.666667 1;0 0.333333 1 0.666667;0 0 1 1;0 0 1 1" calcMode="spline" values="1 0;1 0;1 0.739692;1 1.01203;1 1;1 1;1 0;1 0" dur="9.96667s" keyTimes="0;0.0234114;0.0301003;0.040833;0.0468227;0.762542;0.765886;1"/>
              <g transform="skewX(0) skewY(0)">
               <g transform="translate(-0.852189 -7.24361)" opacity="1">
                <ellipse id="Circle7" cx="0.852189" cy="7.24361" stroke-width="1" stroke-linejoin="round" stroke="url(#0x00005584108e0000)" stroke-linecap="round" rx="15" ry="15" fill="url(#0x0000558411eeef20)"/>
               </g>
              </g>
             </g>
            </g>
           </g>
          </g>
         </g>
         <g transform="translate(12 12)">
          <g transform="translate(206.358 190.852)">
           <g transform="rotate(-65)">
            <g>
             <animateTransform type="scale" attributeName="transform" repeatCount="indefinite" keySplines="0 0 1 1;0 0 1 1;0 0.333333 1 0.666667;0 0 1 1;0 0 1 1" calcMode="spline" values="0 1;0 1;0.8 1;0.8 1;0 1;0 1" dur="9.96667s" keyTimes="0;0.0267559;0.0501672;0.762542;0.765886;1"/>
             <g>
              <animateTransform type="scale" attributeName="transform" repeatCount="indefinite" keySplines="0 0 1 1;0 0 1 1;0 0.333333 1 0.666667;0 0 1 1;0 0 1 1" calcMode="spline" values="1 0;1 0;1 0.8;1 0.8;1 0;1 0" dur="9.96667s" keyTimes="0;0.0267559;0.0501672;0.762542;0.765886;1"/>
              <g transform="skewX(0) skewY(0)">
               <g transform="translate(-12 -12)" opacity="1">
                <g id="Group4">
                 <g transform="translate(13 6.60355)">
                  <g transform="translate(0 0)">
                   <g transform="rotate(0)">
                    <g transform="scale(1 1)">
                     <g transform="skewX(0) skewY(0)">
                      <g transform="translate(-13 -6.60355)" opacity="1">
                       <path id="Path" stroke-width="2" stroke-linejoin="miter" stroke="rgba(248, 245, 244, 1)" fill-rule="evenodd" stroke-linecap="butt" d="M10 2L10 10L13 7L16 10L16 2" fill="none"/>
                      </g>
                     </g>
                    </g>
                   </g>
                  </g>
                 </g>
                 <g transform="translate(12 12)">
                  <g transform="translate(0 0)">
                   <g transform="rotate(0)">
                    <g transform="scale(1 1)">
                     <g transform="skewX(0) skewY(0)">
                      <g transform="translate(-12 -12)" opacity="1">
                       <path id="Path0" stroke-width="2" stroke-linejoin="miter" stroke="rgba(248, 245, 244, 1)" fill-rule="evenodd" stroke-linecap="butt" d="M4 19.5L4 4.5Q4 4.37718 4.01204 4.25496Q4.02408 4.13273 4.04804 4.01227Q4.072 3.89182 4.10765 3.77429Q4.1433 3.65676 4.1903 3.54329Q4.2373 3.42982 4.2952 3.32151Q4.35309 3.21319 4.42133 3.11107Q4.48956 3.00896 4.56747 2.91402Q4.64539 2.81908 4.73223 2.73223Q4.81908 2.64539 4.91402 2.56747Q5.00896 2.48956 5.11107 2.42133Q5.21319 2.35309 5.32151 2.2952Q5.42982 2.2373 5.54329 2.1903Q5.65676 2.1433 5.77429 2.10765Q5.89182 2.072 6.01227 2.04804Q6.13273 2.02408 6.25496 2.01204Q6.37718 2 6.5 2L19 2Q19.0985 2 19.1951 2.01921Q19.2917 2.03843 19.3827 2.07612Q19.4737 2.11381 19.5556 2.16853Q19.6375 2.22325 19.7071 2.29289Q19.7767 2.36254 19.8315 2.44443Q19.8862 2.52632 19.9239 2.61732Q19.9616 2.70831 19.9808 2.80491Q20 2.90151 20 3L20 21Q20 21.0985 19.9808 21.1951Q19.9616 21.2917 19.9239 21.3827Q19.8862 21.4737 19.8315 21.5556Q19.7767 21.6375 19.7071 21.7071Q19.6375 21.7767 19.5556 21.8315Q19.4737 21.8862 19.3827 21.9239Q19.2917 21.9616 19.1951 21.9808Q19.0985 22 19 22L6.5 22Q6.37718 22 6.25496 21.988Q6.13273 21.9759 6.01227 21.952Q5.89182 21.928 5.77429 21.8923Q5.65676 21.8567 5.54329 21.8097Q5.42982 21.7627 5.32151 21.7048Q5.21319 21.6469 5.11107 21.5787Q5.00896 21.5104 4.91402 21.4325Q4.81908 21.3546 4.73223 21.2678Q4.64539 21.1809 4.56747 21.086Q4.48956 20.991 4.42133 20.8889Q4.35309 20.7868 4.2952 20.6785Q4.2373 20.5702 4.1903 20.4567Q4.1433 20.3432 4.10765 20.2257Q4.072 20.1082 4.04804 19.9877Q4.02408 19.8673 4.01204 19.745Q4 19.6228 4 19.5Q4 19.3772 4.01204 19.255Q4.02408 19.1327 4.04804 19.0123Q4.072 18.8918 4.10765 18.7743Q4.1433 18.6568 4.1903 18.5433Q4.2373 18.4298 4.2952 18.3215Q4.35309 18.2132 4.42133 18.1111Q4.48956 18.009 4.56747 17.914Q4.64539 17.8191 4.73223 17.7322Q4.81908 17.6454 4.91402 17.5675Q5.00896 17.4896 5.11107 17.4213Q5.21319 17.3531 5.32151 17.2952Q5.42982 17.2373 5.54329 17.1903Q5.65676 17.1433 5.77429 17.1076Q5.89182 17.072 6.01227 17.048Q6.13273 17.0241 6.25496 17.012Q6.37718 17 6.5 17L20 17" fill="none"/>
                      </g>
                     </g>
                    </g>
                   </g>
                  </g>
                 </g>
                </g>
               </g>
              </g>
             </g>
            </g>
           </g>
          </g>
         </g>
         <g transform="translate(0.85219 7.24361)">
          <g transform="translate(66.8937 221.86)">
           <g transform="rotate(0)">
            <g>
             <animateTransform type="scale" attributeName="transform" repeatCount="indefinite" keySplines="0 0 1 1;0.33333 1 0.666664 0.714291;0.333333 0.333333 0.666667 0.666667;0 0.333333 1 0.666667;0 0 1 1;0 0 1 1" calcMode="spline" values="0 1;0 1;1 1;1 1;1 1;0 1;0 1" dur="9.96667s" keyTimes="0;0.0167224;0.0301003;0.0301003;0.762542;0.765886;1"/>
             <g>
              <animateTransform type="scale" attributeName="transform" repeatCount="indefinite" keySplines="0 0 1 1;0.33333 1 0.666664 0.714291;0.333333 0.333333 0.666667 0.666667;0 0.333333 1 0.666667;0 0 1 1;0 0 1 1" calcMode="spline" values="1 0;1 0;1 1;1 1;1 1;1 0;1 0" dur="9.96667s" keyTimes="0;0.0167224;0.0301003;0.0301003;0.762542;0.765886;1"/>
              <g transform="skewX(0) skewY(0)">
               <g transform="translate(-0.85219 -7.24361)" opacity="1">
                <ellipse id="Circle8" cx="0.852189" cy="7.24361" stroke-width="1" stroke-linejoin="round" stroke="url(#0x000055840fffd860)" stroke-linecap="round" rx="5" ry="5" fill="url(#0x000055840e83c840)"/>
               </g>
              </g>
             </g>
            </g>
           </g>
          </g>
         </g>
        </g>
        <animate attributeName="opacity" repeatCount="indefinite" keySplines="0 0 1 1;0 0 1 1;0 0.333333 0.83871 0.666667;0.664222 0 1 1" calcMode="spline" values="1;1;0;0;1" dur="9.96667s" keyTimes="0;0.762542;0.765886;0.869565;1"/>
       </g>
      </g>
     </g>
    </g>
   </g>
  </g>
 </g>
 <g transform="translate(128 128)">
  <g transform="translate(22.0112 22.0445)">
   <g>
    <animateTransform type="rotate" attributeName="transform" repeatCount="indefinite" keySplines="0 0 1 1;0.333333 0.333333 0.666667 0.666667;0.071825 0.690588 0.910126 0;0.20968 0.694797 0.55503 1;0.276294 0 1 1;0 0 1 1" calcMode="spline" values="-26.4352;-26.4352;-26.4352;276.208;294.662;0;0" dur="9.96667s" keyTimes="0;0;0;0.638796;0.648844;0.765886;1"/>
    <g>
     <animateTransform type="scale" attributeName="transform" repeatCount="indefinite" keySplines="0 0 1 1;0.333333 0.0809952 0.666667 1;0.333333 0.333333 0.666667 0.666667;0.333333 0.00518785 0.666667 1;0.333333 0 0.666667 0.293884;0.333333 0.0930237 0.666667 0.906976;0.333333 0.706116 0.666667 1;0.333333 0 0.666667 0.994812;0.333333 0.333333 0.666667 0.666667;0.333333 1.59872e-13 0.666667 0.919005;0 0.333333 1 0.666667;0.333333 0.0266667 0.666667 0.973333" calcMode="spline" values="1 1;1 1;0.987513 1;0.987562 1;1.05899 1;1.05266 1;0.447338 1;0.43713 1;0.512438 1;0.512438 1;0.5 1;0.5 1;1 1" dur="9.96667s" keyTimes="0;0.481605;0.532905;0.535117;0.554596;0.558528;0.588629;0.592561;0.61204;0.614252;0.665552;0.916388;1"/>
     <g>
      <animateTransform type="scale" attributeName="transform" repeatCount="indefinite" keySplines="0 0 1 1;0.333333 0.0809952 0.666667 1;0.333333 0.333333 0.666667 0.666667;0.333333 0.00518785 0.666667 1;0.333333 0 0.666667 0.293884;0.333333 0.0930237 0.666667 0.906976;0.333333 0.706116 0.666667 1;0.333333 0 0.666667 0.994812;0.333333 0.333333 0.666667 0.666667;0.333333 1.59872e-13 0.666667 0.919005;0 0.333333 1 0.666667;0.333333 0.0266667 0.666667 0.973333" calcMode="spline" values="1 1;1 1;1 0.987513;1 0.987562;1 1.05899;1 1.05266;1 0.447338;1 0.43713;1 0.512438;1 0.512438;1 0.5;1 0.5;1 1" dur="9.96667s" keyTimes="0;0.481605;0.532905;0.535117;0.554596;0.558528;0.588629;0.592561;0.61204;0.614252;0.665552;0.916388;1"/>
      <g transform="skewX(0) skewY(0)">
       <g transform="translate(-128 -128)">
        <g id="Group0">
         <g transform="translate(0 0)">
          <g transform="translate(128 128)">
           <g transform="rotate(0)">
            <g transform="scale(1 1)">
             <g transform="skewX(0) skewY(0)">
              <g transform="translate(0 0)" opacity="1">
               <ellipse id="Circle0" cx="0" cy="0" stroke-width="2" stroke-linejoin="round" stroke="rgba(128, 128, 128, 0.8)" stroke-linecap="round" rx="86" ry="86" fill="none"/>
              </g>
             </g>
            </g>
           </g>
          </g>
         </g>
         <g transform="translate(0.85219 7.24361)">
          <g transform="translate(66.8937 180.653)">
           <g transform="rotate(0)">
            <g>
             <animateTransform type="scale" attributeName="transform" repeatCount="indefinite" keySplines="0 0 1 1;0.333333 0.333333 0.666663 0.771426;0.333331 0.61538 0.666666 0.794871;0.239316 1 0.760684 0.810714;0.333333 0.333333 0.666667 0.666667;0 0.333333 1 0.666667;0 0 1 1;0 0 1 1" calcMode="spline" values="0 1;0 1;0.683594 1;0.9375 1;1 1;1 1;1 1;0 1;0 1" dur="9.96667s" keyTimes="0;0;0.00334448;0.00668896;0.0133779;0.0133779;0.762542;0.765886;1"/>
             <g>
              <animateTransform type="scale" attributeName="transform" repeatCount="indefinite" keySplines="0 0 1 1;0.333333 0.333333 0.666663 0.771426;0.333331 0.61538 0.666666 0.794871;0.239316 1 0.760684 0.810714;0.333333 0.333333 0.666667 0.666667;0 0.333333 1 0.666667;0 0 1 1;0 0 1 1" calcMode="spline" values="1 0;1 0;1 0.683594;1 0.9375;1 1;1 1;1 1;1 0;1 0" dur="9.96667s" keyTimes="0;0;0.00334448;0.00668896;0.0133779;0.0133779;0.762542;0.765886;1"/>
              <g transform="skewX(0) skewY(0)">
               <g transform="translate(-0.85219 -7.24361)" opacity="1">
                <ellipse id="Circle2" cx="0.852189" cy="7.24361" stroke-width="1" stroke-linejoin="round" stroke="url(#0x000055840a564b60)" stroke-linecap="round" rx="5" ry="5" fill="url(#0x000055840a8a0420)"/>
               </g>
              </g>
             </g>
            </g>
           </g>
          </g>
         </g>
         <g transform="translate(0.852189 7.24361)">
          <g transform="translate(212.802 109.651)">
           <g transform="rotate(0)">
            <g>
             <animateTransform type="scale" attributeName="transform" repeatCount="indefinite" keySplines="0 0 1 1;0.494584 0.615446 0.505412 0.710377;0.333332 0.848905 0.666666 1;0.333334 0 0.666667 1;0 0.333333 1 0.666667;0 0 1 1;0 0 1 1" calcMode="spline" values="0 1;0 1;0.739692 1;1.01203 1;1 1;1 1;0 1;0 1" dur="9.96667s" keyTimes="0;0.00334448;0.0100334;0.0207661;0.0267559;0.762542;0.765886;1"/>
             <g>
              <animateTransform type="scale" attributeName="transform" repeatCount="indefinite" keySplines="0 0 1 1;0.494584 0.615446 0.505412 0.710377;0.333332 0.848905 0.666666 1;0.333334 0 0.666667 1;0 0.333333 1 0.666667;0 0 1 1;0 0 1 1" calcMode="spline" values="1 0;1 0;1 0.739692;1 1.01203;1 1;1 1;1 0;1 0" dur="9.96667s" keyTimes="0;0.00334448;0.0100334;0.0207661;0.0267559;0.762542;0.765886;1"/>
              <g transform="skewX(0) skewY(0)">
               <g transform="translate(-0.852189 -7.24361)" opacity="1">
                <ellipse id="Circle4" cx="0.852189" cy="7.24361" stroke-width="1" stroke-linejoin="round" stroke="url(#0x000055840a592340)" stroke-linecap="round" rx="15" ry="15" fill="url(#0x000055840a8a11e0)"/>
               </g>
              </g>
             </g>
            </g>
           </g>
          </g>
         </g>
         <g transform="translate(11.999 11.9945)">
          <g transform="translate(201.51 104.799)">
           <g transform="rotate(-72.6)">
            <g>
             <animateTransform type="scale" attributeName="transform" repeatCount="indefinite" keySplines="0 0 1 1;0.494585 0.615447 0.505413 0.710377;0.333333 0.848905 0.666666 1;0.333334 0 0.666667 1;0 0.333333 1 0.666667;0 0 1 1;0 0 1 1" calcMode="spline" values="0 1;0 1;0.591753 1;0.809623 1;0.8 1;0.8 1;0 1;0 1" dur="9.96667s" keyTimes="0;0.00668896;0.0133779;0.0241106;0.0301003;0.762542;0.765886;1"/>
             <g>
              <animateTransform type="scale" attributeName="transform" repeatCount="indefinite" keySplines="0 0 1 1;0.494585 0.615447 0.505413 0.710377;0.333333 0.848905 0.666666 1;0.333334 0 0.666667 1;0 0.333333 1 0.666667;0 0 1 1;0 0 1 1" calcMode="spline" values="1 0;1 0;1 0.591753;1 0.809623;1 0.8;1 0.8;1 0;1 0" dur="9.96667s" keyTimes="0;0.00668896;0.0133779;0.0241106;0.0301003;0.762542;0.765886;1"/>
              <g transform="skewX(0) skewY(0)">
               <g transform="translate(-11.999 -11.9945)" opacity="1">
                <path id="Path2" stroke-width="2" stroke-linejoin="miter" stroke="rgba(248, 245, 244, 1)" fill-rule="evenodd" stroke-linecap="butt" d="M17.5 19C17.5 19 9 19 9 19C5.3957 18.9991 2.38127 16.2614 2.03431 12.6738C1.68734 9.08629 4.12128 5.82169 7.6586 5.13008C11.1959 4.43847 14.6802 6.54595 15.71 10C15.71 10 17.5 10 17.5 10C19.9853 10 22 12.0147 22 14.5C22 16.9853 19.9853 19 17.5 19Z" fill="none"/>
               </g>
              </g>
             </g>
            </g>
           </g>
          </g>
         </g>
         <g transform="translate(0.787992 7.22275)">
          <g transform="translate(98.835 39.5175)">
           <g transform="rotate(0)">
            <g>
             <animateTransform type="scale" attributeName="transform" repeatCount="indefinite" keySplines="0 0 1 1;0.494584 0.615446 0.505412 0.710377;0.333332 0.848905 0.666666 1;0.333334 0 0.666667 1;0 0.333333 1 0.666667;0 0 1 1;0 0 1 1" calcMode="spline" values="0 1;0 1;0.739692 1;1.01203 1;1 1;1 1;0 1;0 1" dur="9.96667s" keyTimes="0;0.0100334;0.0167224;0.0274551;0.0334448;0.762542;0.765886;1"/>
             <g>
              <animateTransform type="scale" attributeName="transform" repeatCount="indefinite" keySplines="0 0 1 1;0.494584 0.615446 0.505412 0.710377;0.333332 0.848905 0.666666 1;0.333334 0 0.666667 1;0 0.333333 1 0.666667;0 0 1 1;0 0 1 1" calcMode="spline" values="1 0;1 0;1 0.739692;1 1.01203;1 1;1 1;1 0;1 0" dur="9.96667s" keyTimes="0;0.0100334;0.0167224;0.0274551;0.0334448;0.762542;0.765886;1"/>
              <g transform="skewX(0) skewY(0)">
               <g transform="translate(-0.787992 -7.22275)" opacity="1">
                <ellipse id="Circle3" cx="0.852189" cy="7.24361" stroke-width="1" stroke-linejoin="round" stroke="url(#0x000055840a593a00)" stroke-linecap="round" rx="10" ry="10" fill="url(#0x000055840a480000)"/>
               </g>
              </g>
             </g>
            </g>
           </g>
          </g>
         </g>
         <g transform="translate(12 12.1125)">
          <g transform="translate(87.6872 34.6486)">
           <g transform="rotate(-72)">
            <g>
             <animateTransform type="scale" attributeName="transform" repeatCount="indefinite" keySplines="0 0 1 1;0.494586 0.615448 0.505413 0.710377;0.333333 0.848905 0.666666 1;0.333333 0 0.666667 1;0 0.333333 1 0.666667;0 0 1 1;0 0 1 1" calcMode="spline" values="0 1;0 1;0.443815 1;0.607217 1;0.6 1;0.6 1;0 1;0 1" dur="9.96667s" keyTimes="0;0.0133779;0.0200669;0.0307995;0.0367893;0.762542;0.765886;1"/>
             <g>
              <animateTransform type="scale" attributeName="transform" repeatCount="indefinite" keySplines="0 0 1 1;0.494586 0.615448 0.505413 0.710377;0.333333 0.848905 0.666666 1;0.333333 0 0.666667 1;0 0.333333 1 0.666667;0 0 1 1;0 0 1 1" calcMode="spline" values="1 0;1 0;1 0.443815;1 0.607217;1 0.6;1 0.6;1 0;1 0" dur="9.96667s" keyTimes="0;0.0133779;0.0200669;0.0307995;0.0367893;0.762542;0.765886;1"/>
              <g transform="skewX(0) skewY(0)">
               <g transform="translate(-12 -12.1125)" opacity="1">
                <g id="Group2">
                 <g transform="translate(12 12)">
                  <g transform="translate(0 0)">
                   <g transform="rotate(0)">
                    <g transform="scale(1 1)">
                     <g transform="skewX(0) skewY(0)">
                      <g transform="translate(-12 -12)" opacity="1">
                       <ellipse id="Circle" cx="12" cy="12" stroke-width="2" stroke-linejoin="miter" stroke="rgba(248, 245, 244, 1)" stroke-linecap="butt" rx="10" ry="10" fill="none"/>
                      </g>
                     </g>
                    </g>
                   </g>
                  </g>
                 </g>
                 <g transform="translate(12 12.1901)">
                  <g transform="translate(0 0)">
                   <g transform="rotate(0)">
                    <g transform="scale(1 1)">
                     <g transform="skewX(0) skewY(0)">
                      <g transform="translate(-12 -12.1901)" opacity="1">
                       <path id="Path" stroke-width="2" stroke-linejoin="miter" stroke="rgba(248, 245, 244, 1)" fill-rule="evenodd" stroke-linecap="butt" d="M12 2Q11.7621 2.24975 11.5364 2.51054Q11.3107 2.77132 11.0976 3.04253Q10.8846 3.31375 10.6846 3.59479Q10.4847 3.87584 10.2984 4.16607Q10.112 4.45629 9.93971 4.75506Q9.76738 5.05382 9.60946 5.36043Q9.45153 5.66705 9.30835 5.98083Q9.16518 6.2946 9.03709 6.61484Q8.90899 6.93507 8.79627 7.26102Q8.68355 7.58698 8.58645 7.91793Q8.48936 8.24888 8.40811 8.58407Q8.32685 8.91926 8.26163 9.25794Q8.19641 9.59662 8.14736 9.93801Q8.09832 10.2794 8.06556 10.6227Q8.0328 10.9661 8.0164 11.3106Q8 11.6551 8 12Q8 12.3449 8.0164 12.6894Q8.0328 13.0339 8.06555 13.3773Q8.09832 13.7206 8.14736 14.062Q8.19641 14.4034 8.26163 14.7421Q8.32685 15.0807 8.40811 15.4159Q8.48936 15.7511 8.58646 16.0821Q8.68355 16.413 8.79627 16.739Q8.90899 17.0649 9.03709 17.3852Q9.16518 17.7054 9.30835 18.0192Q9.45153 18.333 9.60946 18.6396Q9.76739 18.9462 9.93971 19.2449Q10.112 19.5437 10.2984 19.8339Q10.4847 20.1242 10.6846 20.4052Q10.8846 20.6862 11.0976 20.9575Q11.3107 21.2287 11.5364 21.4895Q11.7621 21.7502 12 22Q12.2379 21.7502 12.4636 21.4895Q12.6893 21.2287 12.9024 20.9575Q13.1154 20.6862 13.3154 20.4052Q13.5153 20.1242 13.7016 19.8339Q13.888 19.5437 14.0603 19.2449Q14.2326 18.9462 14.3905 18.6396Q14.5485 18.333 14.6916 18.0192Q14.8348 17.7054 14.9629 17.3852Q15.091 17.0649 15.2037 16.739Q15.3164 16.413 15.4135 16.0821Q15.5106 15.7511 15.5919 15.4159Q15.6731 15.0807 15.7384 14.7421Q15.8036 14.4034 15.8526 14.062Q15.9017 13.7206 15.9344 13.3773Q15.9672 13.0339 15.9836 12.6894Q16 12.3449 16 12Q16 11.6551 15.9836 11.3106Q15.9672 10.9661 15.9344 10.6227Q15.9017 10.2794 15.8526 9.93801Q15.8036 9.59662 15.7384 9.25794Q15.6731 8.91926 15.5919 8.58407Q15.5106 8.24888 15.4135 7.91793Q15.3164 7.58698 15.2037 7.26102Q15.091 6.93507 14.9629 6.61484Q14.8348 6.2946 14.6916 5.98083Q14.5485 5.66705 14.3905 5.36043Q14.2326 5.05382 14.0603 4.75506Q13.888 4.45629 13.7016 4.16607Q13.5153 3.87584 13.3154 3.59479Q13.1154 3.31375 12.9024 3.04253Q12.6893 2.77132 12.4636 2.51054Q12.2379 2.24975 12 2" fill="none"/>
                      </g>
                     </g>
                    </g>
                   </g>
                  </g>
                 </g>
                 <g transform="translate(12 12)">
                  <g transform="translate(0 0)">
                   <g transform="rotate(0)">
                    <g transform="scale(1 1)">
                     <g transform="skewX(0) skewY(0)">
                      <g transform="translate(-12 -12)" opacity="1">
                       <path id="Path0" stroke-width="2" stroke-linejoin="miter" stroke="rgba(248, 245, 244, 1)" fill-rule="evenodd" stroke-linecap="butt" d="M2 12L22 12" fill="none"/>
                      </g>
                     </g>
                    </g>
                   </g>
                  </g>
                 </g>
                </g>
               </g>
              </g>
             </g>
            </g>
           </g>
          </g>
         </g>
        </g>
        <animate attributeName="opacity" repeatCount="indefinite" keySplines="0 0 1 1;0 0 1 1;0 0 0.57143 1;0.480003 1.11022e-16 0.880003 0.25;0.333663 0.666917 0.666996 1;0.889403 0 1 1" calcMode="spline" values="1;1;0;0.000226172;0;0;1" dur="9.96667s" keyTimes="0;0.762542;0.765886;0.869937;0.916388;0.916639;1"/>
       </g>
      </g>
     </g>
    </g>
   </g>
  </g>
 </g>
 <g transform="translate(12 12)">
  <g transform="translate(138.011 138.044)">
   <g transform="rotate(0)">
    <g>
     <animateTransform type="scale" attributeName="transform" repeatCount="indefinite" keySplines="0 0 1 1;0.333333 0.0784645 0.666667 1;0.333333 0 0.666667 0.31165;0.333333 0.0155155 0.666667 1;0.333333 0 0.666667 0.305454;0.333337 0.0660017 0.666666 0.501282;0.333333 0.363688 0.666667 0.636312;0.333333 0.428421 0.666664 0.851363;0.333333 0.722991 0.666667 1;0.333333 2.65343e-14 0.666667 0.549562;0.333333 0.59701 0.666667 0.981177;0.333333 0.68835 0.666667 1;0.333333 2.07012e-13 0.666667 0.921536;0 0.333333 1 0.666667;0.333333 0.030303 0.666667 0.333334;0.333334 0.257721 0.666667 0.71885;0.333333 0.666666 0.666667 0.972222;0 0 1 1" calcMode="spline" values="5 1;5 1;5.07686 1;5.07451 1;4.65009 1;4.66125 1;5.96405 1;7.03595 1;8.2492 1;8.33911 1;8.15493 1;7.92549 1;7.92279 1;8 1;8 1;7.37197 1;5.7474 1;5 1;5 1" dur="9.96667s" keyTimes="0;0.461538;0.527885;0.535117;0.561567;0.565217;0.58194;0.591973;0.605351;0.611049;0.622074;0.638796;0.646028;0.712375;0.852843;0.889632;0.926421;0.966555;1"/>
     <g>
      <animateTransform type="scale" attributeName="transform" repeatCount="indefinite" keySplines="0 0 1 1;0.333333 0.0784645 0.666667 1;0.333333 0 0.666667 0.31165;0.333333 0.0155155 0.666667 1;0.333333 0 0.666667 0.305454;0.333337 0.0660017 0.666666 0.501282;0.333333 0.363688 0.666667 0.636312;0.333333 0.428421 0.666664 0.851363;0.333333 0.722991 0.666667 1;0.333333 2.65343e-14 0.666667 0.549562;0.333333 0.59701 0.666667 0.981177;0.333333 0.68835 0.666667 1;0.333333 2.07012e-13 0.666667 0.921536;0 0.333333 1 0.666667;0.333333 0.030303 0.666667 0.333334;0.333334 0.257721 0.666667 0.71885;0.333333 0.666666 0.666667 0.972222;0 0 1 1" calcMode="spline" values="1 5;1 5;1 5.07686;1 5.07451;1 4.65009;1 4.66125;1 5.96405;1 7.03595;1 8.2492;1 8.33911;1 8.15493;1 7.92549;1 7.92279;1 8;1 8;1 7.37197;1 5.7474;1 5;1 5" dur="9.96667s" keyTimes="0;0.461538;0.527885;0.535117;0.561567;0.565217;0.58194;0.591973;0.605351;0.611049;0.622074;0.638796;0.646028;0.712375;0.852843;0.889632;0.926421;0.966555;1"/>
      <g transform="skewX(0) skewY(0)">
       <g transform="translate(-12 -12)" opacity="1">
        <g id="Group">
         <g transform="translate(12 12)">
          <g transform="translate(0 0)">
           <g transform="rotate(0)">
            <g transform="scale(1 1)">
             <g transform="skewX(0) skewY(0)">
              <g transform="translate(-12 -12)" opacity="1">
               <path id="Path" stroke-width="1" stroke-linejoin="miter" stroke="none" fill-rule="evenodd" stroke-linecap="butt" d="M23 12C23 15.6223 21.2475 18.8336 18.5459 20.8379C18.5224 20.8566 18.4979 20.874 18.4727 20.8906C16.6561 22.2154 14.4204 23 12 23C9.59312 23 7.36867 22.2244 5.55762 20.9131C5.51596 20.8879 5.47664 20.8597 5.43945 20.8291C2.74557 18.8241 1 15.6162 1 12C1 5.92487 5.92487 1 12 1C18.0751 1 23 5.92487 23 12Z" fill="url(#0x000055840a481b80)"/>
              </g>
             </g>
            </g>
           </g>
          </g>
         </g>
         <g transform="translate(12 12)">
          <g transform="translate(0 0)">
           <g>
            <animateTransform type="rotate" attributeName="transform" repeatCount="indefinite" keySplines="0 0 1 1;0.30918 0 0.448692 0.973292;0.333963 0.333333 0.667294 0.666667;0.381175 0 0.606095 1;0.333333 0.333333 0.666667 0.666667;0.275395 2.22045e-16 0.645773 1;0 0 1 1" calcMode="spline" values="0;0;-0.5;-0.5;0.5;0.5;0;0" dur="9.96667s" keyTimes="0;0.551839;0.662207;0.662785;0.772575;0.772575;0.882943;1"/>
            <g transform="scale(1 1)">
             <g transform="skewX(0) skewY(0)">
              <g transform="translate(-12 -12)" opacity="1">
               <g id="Group">
                <g transform="translate(11.9996 18.5)">
                 <g transform="translate(0 0)">
                  <g transform="rotate(0)">
                   <g transform="scale(1 1)">
                    <g transform="skewX(0) skewY(0)">
                     <g transform="translate(-11.9996 -18.5)" opacity="1">
                      <path id="Path" stroke-width="1" stroke-linejoin="miter" stroke="none" fill-rule="evenodd" stroke-linecap="butt" d="M12 14C15.6968 14 18.7216 16.8659 18.9795 20.4971C18.8375 20.6138 18.6937 20.7283 18.5459 20.8379C18.5224 20.8566 18.4979 20.874 18.4727 20.8906C16.6561 22.2154 14.4204 23 12 23C9.59312 23 7.36867 22.2244 5.55762 20.9131C5.51596 20.8879 5.47664 20.8597 5.43945 20.8291C5.29652 20.7227 5.157 20.6121 5.01953 20.499C5.27644 16.8669 8.3025 14 12 14Z" fill="url(#0x000055840a6ba9a0)"/>
                     </g>
                    </g>
                   </g>
                  </g>
                 </g>
                </g>
                <g transform="translate(11.9996 18.5)">
                 <g transform="translate(0 0)">
                  <g transform="rotate(0)">
                   <g transform="scale(1 1)">
                    <g transform="skewX(0) skewY(0)">
                     <g transform="translate(-11.9996 -18.5)" opacity="1">
                      <path id="Path0" stroke-width="1" stroke-linejoin="miter" stroke="none" fill-rule="evenodd" stroke-linecap="butt" d="M12 14C15.6968 14 18.7216 16.8659 18.9795 20.4971C18.8375 20.6138 18.6937 20.7283 18.5459 20.8379C18.5224 20.8566 18.4979 20.874 18.4727 20.8906C16.6561 22.2154 14.4204 23 12 23C9.59312 23 7.36867 22.2244 5.55762 20.9131C5.51596 20.8879 5.47664 20.8597 5.43945 20.8291C5.29652 20.7227 5.157 20.6121 5.01953 20.499C5.27644 16.8669 8.3025 14 12 14Z" fill="url(#0x000055840a6bb760)"/>
                     </g>
                    </g>
                   </g>
                  </g>
                 </g>
                </g>
               </g>
              </g>
             </g>
            </g>
           </g>
          </g>
         </g>
         <g transform="translate(12 11)">
          <g>
           <animateTransform type="translate" attributeName="transform" repeatCount="indefinite" keySplines="0 0 1 1;0 0 0.366126 1;0.27818 1.67321e-16 0.615111 0.25;0.317804 0.333333 0.651623 0.666667;0.30816 0.333333 0.643394 0.666667;0.329874 0.333333 0.663263 0.666667;0.319121 0.290168 0.653704 1;0.327147 0 0.660901 0.253148;0.32675 0.470224 0.660927 1;0.330376 1.37813e-16 0.664119 0.264165;0.33113 0.331027 0.665312 1;0.333344 0 0.666999 0.254552;0.337238 0.0244354 0.67276 1;0.333522 0 0.666857 0.328518;0.345665 0.0240217 0.6817 1;0.359914 0 0.697154 1;0 0 1 1" calcMode="spline" values="0 0;0 0;-0.000161892 0;0 0;6.55525e-05 0;-7.80271e-06 0;0 0;0.000343305 0;0 0;-0.000786662 0;0 0;0.00253198 0;0 0;-0.200245 0;-0.2 0;0.2 0;0 0;0 0" dur="9.96667s" keyTimes="0;0;0.0515901;0.110368;0.139158;0.207585;0.220736;0.288357;0.331104;0.395095;0.441472;0.509628;0.551839;0.659848;0.662207;0.772575;0.882943;1"/>
           <g>
            <animateTransform type="translate" attributeName="transform" repeatCount="indefinite" keySplines="0 0 1 1;0.151515 0 0.848485 1;0.151515 0 0.848485 1;0.151515 0 0.848485 1;0.151515 0 0.848485 1;0.151515 0 0.848485 1;0.151515 0 1 1;0 0.333333 1 0.666667;0 0 0.848485 1;0 0 1 1" calcMode="spline" values="0 0;0 0;0 -0.422883;0 0;0 -0.422883;0 0;0 -0.422883;0 -0.25;0 -0.25;0 0;0 0" dur="9.96667s" keyTimes="0;0;0.110368;0.220736;0.331104;0.441472;0.551839;0.662207;0.772575;0.882943;1"/>
            <g transform="rotate(0)">
             <g transform="scale(1 1)">
              <g transform="skewX(0) skewY(0)">
               <g transform="translate(-12 -11)" opacity="1">
                <ellipse id="Circle" cx="12" cy="11" stroke-width="1" stroke-linejoin="miter" stroke="none" stroke-linecap="butt" rx="5" ry="5" fill="url(#0x000055840a736580)"/>
               </g>
              </g>
             </g>
            </g>
           </g>
          </g>
         </g>
         <g transform="translate(12 12)">
          <g transform="translate(0 0)">
           <g transform="rotate(0)">
            <g transform="scale(1 1)">
             <g transform="skewX(0) skewY(0)">
              <g transform="translate(-12 -12)" opacity="1">
               <path id="Path1" stroke-width="1" stroke-linejoin="miter" stroke="none" fill-rule="evenodd" stroke-linecap="butt" d="M23 12C23 15.6223 21.2475 18.8336 18.5459 20.8379C18.5224 20.8566 18.4979 20.874 18.4727 20.8906C16.6561 22.2154 14.4204 23 12 23C9.59312 23 7.36867 22.2244 5.55762 20.9131C5.51596 20.8879 5.47664 20.8597 5.43945 20.8291C2.74557 18.8241 1 15.6162 1 12C1 5.92487 5.92487 1 12 1C18.0751 1 23 5.92487 23 12Z" fill="rgba(0, 0, 0, 0.00999466)"/>
              </g>
             </g>
            </g>
           </g>
          </g>
         </g>
        </g>
       </g>
      </g>
     </g>
    </g>
   </g>
  </g>
 </g>
 <defs>
  <linearGradient id="0x000055840a523b00">
   <stop offset="0" stop-color="rgba(45, 82, 63, 1)"/>
   <stop offset="1" stop-color="rgba(53, 121, 85, 1)"/>
  </linearGradient>
  <linearGradient id="0x000055840a54cd80">
   <stop offset="0" stop-color="rgba(95, 158, 68, 1)"/>
   <stop offset="1" stop-color="rgba(35, 165, 68, 1)"/>
  </linearGradient>
  <linearGradient id="0x000055840a54c7e0">
   <stop offset="0" stop-color="rgba(0, 0, 0, 0)"/>
   <stop offset="1" stop-color="rgba(0, 0, 0, 1)"/>
  </linearGradient>
  <linearGradient id="0x000055840a54c120">
   <stop offset="0" stop-color="rgba(162, 203, 110, 1)"/>
   <stop offset="0.5" stop-color="rgba(119, 193, 91, 1)"/>
   <stop offset="1" stop-color="rgba(48, 175, 59, 1)"/>
  </linearGradient>
  <linearGradient id="0x000055840a5497a0">
   <stop offset="0" stop-color="rgba(45, 82, 63, 1)"/>
   <stop offset="1" stop-color="rgba(53, 121, 85, 1)"/>
  </linearGradient>
  <linearGradient id="0x000055840a5490e0">
   <stop offset="0" stop-color="rgba(95, 158, 68, 1)"/>
   <stop offset="1" stop-color="rgba(35, 165, 68, 1)"/>
  </linearGradient>
  <linearGradient id="0x000055840a548a20">
   <stop offset="0" stop-color="rgba(0, 0, 0, 0)"/>
   <stop offset="1" stop-color="rgba(0, 0, 0, 1)"/>
  </linearGradient>
  <linearGradient id="0x000055840a548360">
   <stop offset="0" stop-color="rgba(162, 203, 110, 1)"/>
   <stop offset="0.5" stop-color="rgba(119, 193, 91, 1)"/>
   <stop offset="1" stop-color="rgba(48, 175, 59, 1)"/>
  </linearGradient>
  <linearGradient id="0x000055840a5339e0">
   <stop offset="0" stop-color="rgba(45, 82, 63, 1)"/>
   <stop offset="1" stop-color="rgba(53, 121, 85, 1)"/>
  </linearGradient>
  <linearGradient id="0x000055840a533320">
   <stop offset="0" stop-color="rgba(95, 158, 68, 1)"/>
   <stop offset="1" stop-color="rgba(35, 165, 68, 1)"/>
  </linearGradient>
  <linearGradient id="0x000055840a87a000">
   <stop offset="0" stop-color="rgba(0, 0, 0, 0)"/>
   <stop offset="1" stop-color="rgba(0, 0, 0, 1)"/>
  </linearGradient>
  <linearGradient id="0x000055840a8619e0">
   <stop offset="0" stop-color="rgba(162, 203, 110, 1)"/>
   <stop offset="0.5" stop-color="rgba(119, 193, 91, 1)"/>
   <stop offset="1" stop-color="rgba(48, 175, 59, 1)"/>
  </linearGradient>
  <linearGradient xlink:href="#0x000055840a5339e0" id="0x000055840d307b80" gradientUnits="userSpaceOnUse" y1="-8.25639" y2="22.7436" x1="-14.6478" x2="16.3522"/>
  <linearGradient xlink:href="#0x000055840a523b00" id="0x000055840ec281a0" gradientUnits="userSpaceOnUse" y1="-8.25639" y2="22.7436" x1="-14.6478" x2="16.3522"/>
  <linearGradient xlink:href="#0x000055840a5339e0" id="0x000055840d3074a0" gradientUnits="userSpaceOnUse" y1="-3.25639" y2="17.7436" x1="-9.64781" x2="11.3522"/>
  <linearGradient xlink:href="#0x000055840a5339e0" id="0x000055840e4a3040" gradientUnits="userSpaceOnUse" y1="-3.25639" y2="17.7436" x1="-9.64781" x2="11.3522"/>
  <linearGradient xlink:href="#0x000055840a5339e0" id="0x0000558411eeef20" gradientUnits="userSpaceOnUse" y1="-8.25639" y2="22.7436" x1="-14.6478" x2="16.3522"/>
  <linearGradient xlink:href="#0x000055840a523b00" id="0x00005584108e0000" gradientUnits="userSpaceOnUse" y1="-8.25639" y2="22.7436" x1="-14.6478" x2="16.3522"/>
  <linearGradient xlink:href="#0x000055840a5339e0" id="0x000055840e83c840" gradientUnits="userSpaceOnUse" y1="1.74361" y2="12.7436" x1="-4.64781" x2="6.35219"/>
  <linearGradient xlink:href="#0x000055840a5339e0" id="0x000055840fffd860" gradientUnits="userSpaceOnUse" y1="1.74361" y2="12.7436" x1="-4.64781" x2="6.35219"/>
  <linearGradient xlink:href="#0x000055840a5339e0" id="0x000055840a8a0420" gradientUnits="userSpaceOnUse" y1="1.74361" y2="12.7436" x1="-4.64781" x2="6.35219"/>
  <linearGradient xlink:href="#0x000055840a5339e0" id="0x000055840a564b60" gradientUnits="userSpaceOnUse" y1="1.74361" y2="12.7436" x1="-4.64781" x2="6.35219"/>
  <linearGradient xlink:href="#0x000055840a5339e0" id="0x000055840a8a11e0" gradientUnits="userSpaceOnUse" y1="-8.25639" y2="22.7436" x1="-14.6478" x2="16.3522"/>
  <linearGradient xlink:href="#0x000055840a523b00" id="0x000055840a592340" gradientUnits="userSpaceOnUse" y1="-8.25639" y2="22.7436" x1="-14.6478" x2="16.3522"/>
  <linearGradient xlink:href="#0x000055840a5339e0" id="0x000055840a480000" gradientUnits="userSpaceOnUse" y1="-3.25639" y2="17.7436" x1="-9.64781" x2="11.3522"/>
  <linearGradient xlink:href="#0x000055840a5339e0" id="0x000055840a593a00" gradientUnits="userSpaceOnUse" y1="-3.25639" y2="17.7436" x1="-9.64781" x2="11.3522"/>
  <linearGradient xlink:href="#0x000055840a5339e0" id="0x000055840a481b80" gradientUnits="userSpaceOnUse" y1="0.500001" y2="23.5" x1="0.5" x2="23.5"/>
  <linearGradient xlink:href="#0x000055840a5490e0" id="0x000055840a6ba9a0" gradientUnits="userSpaceOnUse" y1="13.5" y2="23.5" x1="4.50257" x2="19.4965"/>
  <linearGradient xlink:href="#0x000055840a5490e0" id="0x000055840a6bb760" gradientUnits="userSpaceOnUse" y1="13.5" y2="23.5" x1="4.50257" x2="19.4965"/>
  <linearGradient xlink:href="#0x000055840a548360" id="0x000055840a736580" gradientUnits="userSpaceOnUse" y1="5.5" y2="16.5" x1="6.5" x2="17.5"/>
 </defs>
</svg>

